<svg id="Layer_1" data-name="Layer 1" xmlns="http://www.w3.org/2000/svg" viewBox="0 0 360 470"><defs><style>.cls-1{fill:#fff;}</style></defs><path d="M304.16,22.19v11c0,23.72-.05,47.43,0,71.14.08,29.88,21.39,51.71,50.53,51.79,24.61.06,49.22,0,73.83,0h6v6.06q0,137.57,0,275.12c0,32.4-20.73,53.68-52.28,53.68h-254C96.76,491,76,469.62,76,437.23Q76,256.51,76,75.8c0-32.31,20.8-53.6,52.34-53.61q84.77,0,169.54,0Z" transform="translate(-76 -21)"/><path d="M436,122.65H374.47c-7.29,0-14.59.15-21.88-.06-8.92-.25-15.68-6.8-15.74-15.84-.18-27.71-.16-57.57-.14-85.28,0-.71.63-.53,1.05,0" transform="translate(-76 -21)"/><rect class="cls-1" x="74" y="324.33" width="95" height="35"/><rect class="cls-1" x="74" y="273.25" width="95" height="35"/><rect class="cls-1" x="74" y="221.17" width="95" height="35"/><rect class="cls-1" x="191" y="221.17" width="95" height="35"/><rect class="cls-1" x="191" y="273.25" width="95" height="35"/><rect class="cls-1" x="191" y="324.33" width="95" height="35"/></svg>