<svg id="Layer_1" data-name="Layer 1" xmlns="http://www.w3.org/2000/svg" viewBox="0 0 470 410"><path d="M255.48,460.84c-58.4,0-116.8-.19-175.2.16-11.38.06-21.56-2.53-29.94-9.72A169.26,169.26,0,0,1,29,429.17c-5.56-6.88-8-15.25-8-24.49q.24-149.92.11-299.84c0-10.18,4.13-19,10.93-26.12A234,234,0,0,1,55.66,57.05c5.17-4.12,11.79-5.94,18.66-5.94,45.76,0,91.53.19,137.3-.11,11.82-.07,20.91,4.77,29.31,12.27,14.77,13.18,26.29,29.17,38.62,44.43,1.85,2.3,3.46,2.47,5.71,2.47H408.68c9.41,0,18.8,0,28.2,0,10.35,0,19.19,4.15,26.52,11a210.27,210.27,0,0,1,19.66,20.62c5.62,6.91,7.91,15.28,7.89,24.45Q490.73,285,491,403.82c0,10.27-2.78,19.46-8.93,27A157.51,157.51,0,0,1,459,453.11c-6.75,5.42-15,7.84-24.14,7.8C375.05,460.74,315.26,460.84,255.48,460.84Z" transform="translate(-21 -51)"/></svg>