<svg id="Layer_1" data-name="Layer 1" xmlns="http://www.w3.org/2000/svg" viewBox="0 0 470 410"><path d="M420.92,134.41q-15.27-15.94-30.54-31.9c-4.72-4.92-9.47-9.79-14.07-14.84-8.07-8.86-8.23-21.8-.51-30.07,8.12-8.7,20.24-8.91,28.81,0q40.22,42,80.09,84.41c8.5,9,8.36,21.26-.21,30.34q-39.76,42.12-79.79,84c-8.34,8.74-21,8.69-28.86.29s-7.62-21.42.45-30.05c13.65-14.58,27.43-29,41.2-43.45a24.48,24.48,0,0,1,3.95-2.81l-.81-1.45a12.28,12.28,0,0,0-2.84-.66q-143.15.27-286.3.7a129.89,129.89,0,0,0-24.92,2.67c-23.43,4.65-41.15,25-42.79,49.89q-2.16,32.34-2.1,64.81c0,22.78.58,45.61,2.07,68.32,1.83,27.75,22.55,49.5,48.84,51.49,20,1.51,40.06,2.16,60.09,2.24,62.57.28,125.15,0,187.71.22a28.52,28.52,0,0,1,12.72,2.81c8.17,4.23,11.84,14,9.76,23.31a21.21,21.21,0,0,1-18.44,16.19,26.75,26.75,0,0,1-2.83.08c-72.52-.05-145,0-217.57-.29-18.15-.08-36.55-.1-54-6.18-35.8-12.47-58.2-38.25-65.2-77.54-2.3-12.85-3-26.13-3.21-39.23C21,301.32,20,264.85,23.41,228.48c4.53-48.57,39.39-85.85,85.69-90.21,20.9-2,42-2.3,63-2.37,80.9-.26,161.8-.1,242.7-.1h5.54C420.51,135.33,420.72,134.88,420.92,134.41Z" transform="translate(-21 -51)"/></svg>