<svg id="Layer_1" data-name="Layer 1" xmlns="http://www.w3.org/2000/svg" viewBox="0 0 460 470"><path d="M370.07,75.28c-1.43-8-2.61-14.83-3.87-21.62-2.93-15.8,6.13-29.26,21.69-32.17,15-2.8,28.76,6.64,31.68,22.29q8.31,44.52,16.08,89.14c2.78,16-7,28.69-23.53,31.41q-46.49,7.62-93,15.22c-15.22,2.49-28.62-6.21-31.84-20.62-3.06-13.68,5.94-27.2,20.81-30.31,11.51-2.41,23.21-4,36.24-6.25a167.51,167.51,0,0,0-41.45-16.83C198.5,78.67,95,145.85,81.45,249.31,69.58,339.68,138.38,425.57,232,437.2,329.16,449.28,414.7,389,431.85,296.44c3.06-16.56,15.68-26.14,31.12-23.63,16.36,2.66,25.44,15.67,22.47,32.63-8.25,47.1-29.85,87.75-65.36,121.2-46.59,43.89-103,65.3-168.16,64.33C140.38,489.31,45.31,409.13,28.69,303.31c-16.3-103.83,42.68-203,144.43-240.57C237.55,39,301.28,42.32,363.21,72.1,365.08,73,367,73.85,370.07,75.28Z" transform="translate(-26 -21)"/></svg>