<svg id="Layer_1" data-name="Layer 1" xmlns="http://www.w3.org/2000/svg" viewBox="0 0 470 410"><path d="M90.08,180.21c3.43,3.08,7.07,5.94,10.28,9.26,11.79,12.22,23.54,24.51,35.11,36.95,10.82,11.61,7,30.14-7.28,35.25-8.2,2.93-15.43.71-21.59-5.82q-36.21-38.28-72.51-76.48c-2.13-2.24-4.26-4.43-6.35-6.69-8.94-9.58-9-21.8,0-31.39C43.05,125,58.48,108.85,73.84,92.64,85,80.89,96,69,107.31,57.45c11.13-11.36,28.64-7.11,33.32,8,2.67,8.69.44,16.32-5.7,22.77Q114.17,110,93.49,131.93c-.77.81-1.49,1.68-3,3.4,2.55.15,4.28.32,6,.32,77.84,0,155.7-.17,233.54.13,24.25.09,48.56.46,72.72,2.43,45.09,3.68,81.14,41.49,85.23,89.1a837.45,837.45,0,0,1,0,141.82c-4,47.36-39.8,84.86-84.7,89.22-16.46,1.6-33,2.42-49.54,2.49-67.77.27-135.53.13-203.28.1-13.45,0-22.61-9.64-21.94-22.9.51-9.9,7.92-18.29,17.28-19.38a59.78,59.78,0,0,1,7.09-.23c71.07-.07,142.14,0,213.2-.34a235,235,0,0,0,39.48-3.28c22.66-4,40.22-24.75,42.32-49.1,3.63-42.1,2.52-84.29,1-126.46-.76-21-8.52-38.13-25.4-50.24-10.53-7.55-22.55-9.16-34.67-9.76-16.05-.81-32.12-1.11-48.19-1.11q-122.19-.16-244.41-.06H91.58C91,178.81,90.56,179.5,90.08,180.21Z" transform="translate(-21 -51)"/></svg>